<svg width="800" height="800" viewBox="0 0 800 800" fill="none" xmlns="http://www.w3.org/2000/svg">
<g clip-path="url(#clip0_22_2)">
<circle cx="400" cy="400" r="400" fill="#3D30A2"/>
<path fill-rule="evenodd" clip-rule="evenodd" d="M81 502V295H129V380.688L194.4 295H254.1L227.162 327H257.5V453H224.733L258 502H199.8L148.137 420.895L129 443.636V502H81ZM178.012 385.261C177.098 386.614 177.098 388.386 178.012 389.739L215.685 445.519C217.893 448.788 223 447.225 223 443.28V331.72C223 327.775 217.893 326.212 215.685 329.481L178.012 385.261Z" fill="white"/>
<path d="M223 502V295H266.2V502H223ZM239.8 295H284.5L386.2 502H341.5L239.8 295ZM356.5 502V295H399.7V502H356.5Z" fill="white"/>
<path fill-rule="evenodd" clip-rule="evenodd" d="M381.9 426.4C381.9 409.2 385.2 394.2 391.8 381.4C398.4 368.6 407.5 358.7 419.1 351.7C430.7 344.5 444 340.9 459 340.9C473.4 340.9 485.8 344.1 496.2 350.5C506.8 356.9 514.9 366 520.5 377.8C526.3 389.4 529.2 403.4 529.2 419.8C529.2 423.2 529 426.4 528.6 429.4C528.4 432.4 528.1 434.8 527.7 436.6H426.863C427.804 441.471 429.316 445.771 431.4 449.5C435.2 456.1 440.4 461 447 464.2C453.8 467.4 461.7 469 470.7 469C476.7 469 482.9 468.2 489.3 466.6C495.9 464.8 501.7 462.6 506.7 460L519 493.6C511.8 496.8 503.7 499.6 494.7 502C485.9 504.4 476.2 505.6 465.6 505.6C448 505.6 432.9 502.3 420.3 495.7C407.9 489.1 398.4 479.9 391.8 468.1C385.2 456.1 381.9 442.2 381.9 426.4ZM426 408.5H490.5C489.833 397 482.6 373.9 459 373.5C429.5 373 442 396 451 396.5C458.2 396.9 462.667 394.333 464 393C462.167 395.333 456 399.4 446 397C436 394.6 433.667 388.833 434 386.5C431.167 389.5 426 398.5 426 408.5Z" fill="white"/>
<path d="M507.9 426.4C507.9 409 511.4 393.9 518.4 381.1C525.4 368.3 535 358.4 547.2 351.4C559.6 344.4 573.8 340.9 589.8 340.9C599 340.9 607.5 342.1 615.3 344.5C623.1 346.9 630.3 349.9 636.9 353.5L620.7 389.2C616.9 386.4 612.4 384.2 607.2 382.6C602 380.8 596.6 379.9 591 379.9C584 379.9 577.6 381.5 571.8 384.7C566.2 387.9 561.7 392.8 558.3 399.4C555.1 406 553.5 414.5 553.5 424.9C553.5 433.9 555.2 441.5 558.6 447.7C562 453.7 566.6 458.3 572.4 461.5C578.4 464.5 585.2 466 592.8 466C598 466 603.2 465.2 608.4 463.6C613.6 462 618.1 459.9 621.9 457.3L638.1 493C631.5 496.6 623.8 499.6 615 502C606.4 504.4 596.8 505.6 586.2 505.6C570.6 505.6 556.9 502.4 545.1 496C533.3 489.4 524.1 480.2 517.5 468.4C511.1 456.4 507.9 442.4 507.9 426.4Z" fill="white"/>
<path d="M608 379V344.5H721.7V379H608ZM635 447.4V309.7L680 303.7V441.7C680 450.3 681.7 456.3 685.1 459.7C688.5 463.1 693.5 464.8 700.1 464.8C702.9 464.8 705.9 464.5 709.1 463.9C712.5 463.1 715.9 462.1 719.3 460.9L724.1 499.6C719.1 501.4 713.7 502.8 707.9 503.8C702.1 505 696.3 505.6 690.5 505.6C679.1 505.6 669.2 503.5 660.8 499.3C652.6 494.9 646.2 488.4 641.6 479.8C637.2 471.2 635 460.4 635 447.4Z" fill="white"/>
</g>
<defs>
<clipPath id="clip0_22_2">
<rect width="800" height="800" fill="white"/>
</clipPath>
</defs>
</svg>
